<?xml version="1.0" standalone="no"?>
<!DOCTYPE svg PUBLIC "-//W3C//DTD SVG 20010904//EN"
 "http://www.w3.org/TR/2001/REC-SVG-20010904/DTD/svg10.dtd">
<svg version="1.0" xmlns="http://www.w3.org/2000/svg"
 width="300.000000pt" height="166.000000pt" viewBox="0 0 300.000000 166.000000"
 preserveAspectRatio="xMidYMid meet">
<metadata>
Created by potrace 1.10, written by Peter Selinger 2001-2011
</metadata>
<g transform="translate(0.000000,166.000000) scale(0.100000,-0.100000)"
fill="#000000" stroke="none">
<path d="M967 1208 c-15 -11 -27 -28 -27 -38 0 -15 -7 -17 -44 -13 -36 5 -54
0 -90 -21 -50 -29 -86 -70 -86 -96 0 -10 10 -30 22 -45 21 -27 21 -28 4 -60
-27 -51 -10 -140 34 -180 25 -22 22 -22 56 -1 23 16 24 16 24 -8 0 -27 50 -86
73 -86 9 0 25 12 36 26 29 37 30 145 1 192 -20 32 -20 33 -1 22 11 -5 33 -10
50 -10 l31 0 0 -92 c0 -95 11 -132 42 -152 14 -8 22 -6 40 12 20 19 23 35 26
126 l4 104 37 6 c20 4 43 6 51 5 8 0 72 -3 143 -5 70 -3 127 -9 127 -15 0 -5
-49 -9 -114 -9 -99 0 -117 -3 -140 -21 -32 -25 -33 -53 -4 -73 17 -12 50 -16
140 -16 72 0 118 -4 118 -10 0 -6 -47 -10 -120 -10 -107 0 -122 -2 -140 -20
-27 -27 -25 -44 6 -69 23 -18 41 -21 133 -21 78 0 112 4 128 15 19 13 25 13
59 -1 29 -12 59 -15 133 -10 193 11 191 10 200 78 l6 43 65 0 65 0 3 -36 c2
-23 12 -45 28 -60 l26 -24 24 28 c23 26 24 35 24 152 0 117 -1 126 -24 152
l-24 28 -26 -24 c-14 -14 -26 -35 -26 -47 0 -47 -9 -54 -70 -54 -61 0 -70 7
-70 54 0 12 -10 32 -22 42 -20 18 -39 21 -164 23 -103 2 -147 -1 -163 -10 -16
-11 -23 -11 -33 -1 -8 8 -46 12 -109 12 -107 0 -129 10 -129 56 0 30 -50 84
-77 84 -10 0 -24 -4 -32 -9 -19 -12 -41 -3 -41 18 0 26 -43 61 -87 72 -21 5
-45 11 -53 13 -9 2 -28 -5 -43 -16z m79 -62 l7 -28 -54 27 -53 27 34 18 c33
17 35 17 47 1 6 -10 15 -30 19 -45z m67 6 c18 -16 25 -105 9 -128 -8 -12 -52
-37 -57 -32 -2 2 -5 46 -7 100 -3 93 -2 96 17 86 11 -6 28 -17 38 -26z m-175
-52 c47 -28 52 -34 52 -65 l0 -35 -77 40 c-43 22 -87 42 -98 46 -18 5 -16 8
15 24 46 25 46 25 108 -10z m322 -36 c0 -15 -39 -64 -51 -64 -5 0 -9 25 -9 56
l0 55 30 -18 c17 -9 30 -22 30 -29z m-415 -3 c17 -7 13 -12 -32 -35 l-53 -26
0 35 c0 33 2 35 33 34 17 0 41 -4 52 -8z m425 -61 c0 -28 -3 -30 -37 -30 l-37
0 34 30 c19 16 36 29 38 30 1 0 2 -13 2 -30z m-358 -36 l31 -16 -74 -40 c-41
-22 -82 -49 -91 -60 -18 -20 -18 -19 -18 25 0 44 1 46 53 75 62 37 60 36 99
16z m316 -21 c3 -10 -12 -13 -52 -13 l-56 0 0 -131 c0 -100 -3 -130 -12 -127
-9 3 -14 41 -16 131 l-3 127 -59 0 c-56 0 -70 6 -53 24 13 13 246 2 251 -11z
m300 0 c3 -10 -27 -13 -127 -13 -119 0 -152 6 -134 24 13 13 256 2 261 -11z
m297 2 c0 -6 -48 -12 -115 -15 l-115 -5 0 -110 0 -110 115 -5 c148 -6 148 -24
0 -28 -147 -4 -150 -1 -150 143 0 144 2 147 153 143 66 -2 112 -7 112 -13z
m63 -59 l-3 -56 108 0 109 0 -4 62 c-2 43 1 63 10 65 9 4 12 -29 12 -142 0
-113 -3 -146 -12 -142 -9 2 -12 22 -10 65 l4 62 -109 0 -108 0 0 -62 c0 -40
-4 -63 -12 -65 -10 -4 -13 28 -13 135 0 76 3 142 7 146 15 15 25 -15 21 -68z
m-68 -71 l0 -76 -92 3 -93 3 -3 59 c-5 87 -6 86 98 86 l90 0 0 -75z m-870 -36
l0 -91 -22 14 c-19 13 -24 26 -26 76 -3 53 0 62 20 76 12 9 24 16 25 16 2 0 3
-41 3 -91z m-120 31 c0 -27 -3 -50 -7 -50 -5 0 -21 8 -36 19 l-28 18 26 32
c15 17 31 31 36 31 5 0 9 -22 9 -50z m698 3 c3 -10 -27 -13 -127 -13 -119 0
-152 6 -134 24 13 13 256 2 261 -11z m2 -128 c0 -13 -21 -15 -129 -15 -118 0
-152 6 -134 24 3 3 64 6 135 6 107 0 128 -2 128 -15z"/>
<path d="M1450 605 c-19 -11 -73 -14 -236 -15 -166 0 -214 -3 -223 -14 -9 -10
-7 -17 5 -27 36 -29 1062 -29 1098 0 12 10 14 17 5 27 -9 11 -57 14 -226 14
-118 0 -222 4 -231 9 -33 17 -165 21 -192 6z m61 -42 c-5 -26 -6 -26 -9 -5 -2
13 -10 22 -20 21 -11 0 -12 -3 -4 -6 21 -8 13 -33 -10 -32 -21 0 -21 1 -4 8
18 7 18 8 2 14 -25 10 -10 27 23 27 26 0 28 -3 22 -27z m40 10 c1 -17 2 -17 6
0 2 9 12 17 21 16 11 0 12 -2 5 -6 -7 -2 -13 -11 -13 -18 0 -7 6 -15 13 -18 6
-2 -5 -4 -26 -3 -26 1 -36 5 -32 14 3 8 5 18 5 23 0 17 20 9 21 -8z m82 -10
c2 -12 0 -23 -4 -23 -5 0 -9 6 -9 13 0 8 -4 7 -10 -3 -8 -12 -10 -10 -10 11 0
33 27 35 33 2z m-300 0 c-62 -2 -165 -2 -230 0 -65 1 -14 3 112 3 127 0 180
-2 118 -3z m660 0 c-62 -2 -165 -2 -230 0 -65 1 -14 3 112 3 127 0 180 -2 118
-3z"/>
</g>
</svg>
